<svg width="86" height="86" viewBox="0 0 86 86" fill="none" xmlns="http://www.w3.org/2000/svg">
<g id="Group 29">
<circle id="Ellipse 2" cx="43" cy="43" r="43" fill="#794D4D"/>
<path id="Vector" d="M43 0C19.2518 0 0 19.2561 0 43.0017C0 66.7509 19.2518 86 43 86C66.7482 86 86 66.7509 86 43.0017C86 19.2561 66.7465 0 43 0ZM54.3799 42.8219H46.9342C46.9342 54.7209 46.9342 69.3773 46.9342 69.3773H35.8982C35.8982 69.3773 35.8982 54.8711 35.8982 42.8219H30.6492V33.4462H35.8982V27.3709C35.8982 23.0227 37.9622 16.235 47.0372 16.235L55.2094 16.2664V25.3732C55.2094 25.3732 50.2397 25.3732 49.2758 25.3732C48.3067 25.3732 46.9359 25.8569 46.9359 27.9245V33.4479H55.3491L54.3799 42.8219Z" fill="#FBEEEE"/>
</g>
</svg>
