<svg width="86" height="86" viewBox="0 0 86 86" fill="none" xmlns="http://www.w3.org/2000/svg">
<g id="Group 30">
<circle id="Ellipse 3" cx="43" cy="43" r="43" fill="#794D4D"/>
<path id="Vector" fill-rule="evenodd" clip-rule="evenodd" d="M43 0C66.7323 0 86 19.2677 86 43C86 66.7323 66.7323 86 43 86C19.2677 86 0 66.7323 0 43C0 19.2677 19.2677 0 43 0ZM43 16.125C35.7013 16.125 34.786 16.1559 31.9194 16.2868C29.0589 16.4173 27.1053 16.8716 25.3957 17.5359C23.6285 18.2228 22.1297 19.1417 20.6356 20.6358C19.1416 22.1299 18.2226 23.6287 17.5358 25.3959C16.8715 27.1053 16.4173 29.0589 16.2866 31.9194C16.1559 34.786 16.125 35.7013 16.125 43C16.125 50.2987 16.1559 51.214 16.2866 54.0806C16.4173 56.9411 16.8715 58.8947 17.5358 60.6041C18.2226 62.3713 19.1416 63.8701 20.6356 65.3644C22.1297 66.8585 23.6285 67.7774 25.3957 68.4642C27.1053 69.1284 29.0589 69.5827 31.9194 69.7132C34.786 69.8441 35.7013 69.875 43 69.875C50.2987 69.875 51.214 69.8441 54.0806 69.7132C56.9411 69.5827 58.8947 69.1284 60.6041 68.4642C62.3713 67.7774 63.8701 66.8585 65.3644 65.3644C66.8585 63.8701 67.7774 62.3713 68.4642 60.6041C69.1284 58.8947 69.5827 56.9411 69.7132 54.0806C69.8441 51.214 69.875 50.2987 69.875 43C69.875 35.7013 69.8441 34.786 69.7132 31.9194C69.5827 29.0589 69.1284 27.1053 68.4642 25.3959C67.7774 23.6287 66.8585 22.1299 65.3644 20.6358C63.8701 19.1417 62.3713 18.2228 60.6041 17.5359C58.8947 16.8716 56.9411 16.4173 54.0806 16.2868C51.214 16.1559 50.2987 16.125 43 16.125ZM43 20.9674C50.176 20.9674 51.0259 20.9948 53.8598 21.1241C56.4802 21.2437 57.903 21.6814 58.85 22.0494C60.1046 22.5369 60.9999 23.1194 61.9402 24.0598C62.8808 25.0001 63.4631 25.8956 63.9506 27.15C64.3186 28.097 64.7565 29.5198 64.8759 32.1401C65.0052 34.9741 65.0326 35.824 65.0326 43C65.0326 50.176 65.0052 51.0259 64.8759 53.8598C64.7565 56.4802 64.3186 57.903 63.9506 58.85C63.4631 60.1046 62.8808 60.9999 61.9402 61.9402C60.9999 62.8808 60.1046 63.4631 58.85 63.9506C57.903 64.3186 56.4802 64.7565 53.8598 64.8759C51.0264 65.0052 50.1765 65.0326 43 65.0326C35.8235 65.0326 34.9738 65.0052 32.1401 64.8759C29.5198 64.7565 28.097 64.3186 27.15 63.9506C25.8954 63.4631 25.0001 62.8808 24.0597 61.9402C23.1192 60.9999 22.5369 60.1046 22.0494 58.85C21.6814 57.903 21.2435 56.4802 21.1239 53.8598C20.9946 51.0259 20.9674 50.176 20.9674 43C20.9674 35.824 20.9946 34.9741 21.1239 32.1401C21.2435 29.5198 21.6814 28.097 22.0494 27.15C22.5369 25.8956 23.1192 25.0001 24.0597 24.0598C25.0001 23.1194 25.8954 22.5369 27.15 22.0494C28.097 21.6814 29.5198 21.2437 32.1401 21.1241C34.9741 20.9948 35.824 20.9674 43 20.9674ZM43 29.1994C35.3781 29.1994 29.1994 35.3781 29.1994 43C29.1994 50.6219 35.3781 56.8006 43 56.8006C50.6219 56.8006 56.8006 50.6219 56.8006 43C56.8006 35.3781 50.6219 29.1994 43 29.1994ZM43 51.9583C38.0525 51.9583 34.0417 47.9475 34.0417 43C34.0417 38.0525 38.0525 34.0417 43 34.0417C47.9475 34.0417 51.9583 38.0525 51.9583 43C51.9583 47.9475 47.9475 51.9583 43 51.9583ZM60.571 28.6541C60.571 30.4353 59.127 31.879 57.3459 31.879C55.5649 31.879 54.121 30.4353 54.121 28.6541C54.121 26.873 55.5649 25.4291 57.3459 25.4291C59.127 25.4291 60.571 26.873 60.571 28.6541Z" fill="#FBEEEE"/>
</g>
</svg>
