<svg width="40" height="40" viewBox="0 0 40 40" fill="none" xmlns="http://www.w3.org/2000/svg">
<g id="location 1" clip-path="url(#clip0)">
<g id="Group">
<path id="svg 1" d="M26.91 14.2932C26.91 18.2386 23.6957 21.4396 19.7308 21.4396C15.7653 21.4396 12.5516 18.2386 12.5516 14.2932C12.5516 10.3466 15.7658 7.14673 19.7308 7.14673C23.6966 7.14645 26.91 10.3463 26.91 14.2932ZM34.3587 14.2932C34.3587 6.39912 27.9305 0 20 0C12.0701 0 5.64136 6.39912 5.64136 14.2932C5.64136 17.764 6.8854 20.9463 8.95268 23.4217L20.0124 39.306L31.2339 23.19C31.6369 22.6879 32.006 22.1587 32.3391 21.6025L32.4525 21.4405H32.4339C33.6559 19.3368 34.3587 16.8978 34.3587 14.2932Z" fill="#794D4D"/>
</g>
</g>
<defs>
<clipPath id="clip0">
<rect width="40" height="40" fill="white"/>
</clipPath>
</defs>
</svg>
