<svg width="48" height="48" viewBox="0 0 48 48" fill="none" xmlns="http://www.w3.org/2000/svg">
<g id="iconfinder-icon 1" clip-path="url(#clip0)">
<g id="Group">
<path id="Shape" d="M33.3333 29.3333H31.2L30.4 28.5333C33.0667 25.6 34.6667 21.6 34.6667 17.3333C34.6667 7.73333 26.9333 0 17.3333 0C7.73333 0 0 7.73333 0 17.3333C0 26.9333 7.73333 34.6667 17.3333 34.6667C21.6 34.6667 25.6 33.0667 28.5333 30.4L29.3333 31.2V33.3333L42.6667 46.6667L46.6667 42.6667L33.3333 29.3333ZM17.3333 29.3333C10.6667 29.3333 5.33333 24 5.33333 17.3333C5.33333 10.6667 10.6667 5.33333 17.3333 5.33333C24 5.33333 29.3333 10.6667 29.3333 17.3333C29.3333 24 24 29.3333 17.3333 29.3333Z" fill="#794D4D"/>
</g>
</g>
<defs>
<clipPath id="clip0">
<rect width="48" height="48" fill="white"/>
</clipPath>
</defs>
</svg>
