<svg width="86" height="86" viewBox="0 0 86 86" fill="none" xmlns="http://www.w3.org/2000/svg">
<g id="Group 31">
<circle id="Ellipse 4" cx="43" cy="43" r="43" fill="#794D4D"/>
<g id="Group 28">
<path id="Union" fill-rule="evenodd" clip-rule="evenodd" d="M85.9999 42.8896C85.9874 37.8971 85.1331 33.0332 83.457 28.3974C82.9935 27.1134 82.4706 25.8577 81.8916 24.6338C79.7963 20.1978 76.975 16.1824 73.4874 12.6764C73.4339 12.6226 73.3802 12.5689 73.3264 12.5154C69.7769 8.98384 65.7051 6.13524 61.2032 4.03174C60.1098 3.52014 58.9914 3.05318 57.8503 2.63325C53.2457 0.936403 48.4131 0.0528307 43.4492 0.00229835C43.2996 0.000774967 43.1498 8.67115e-06 43 0C38.0029 0 33.1337 0.843026 28.4922 2.50887C27.1142 3.00267 25.7687 3.56481 24.4599 4.19122C20.4645 6.1003 16.813 8.60072 13.5707 11.6483C12.9106 12.2682 12.2701 12.9086 11.6502 13.5687C8.61231 16.8002 6.11805 20.4384 4.21108 24.4184C3.5748 25.7442 3.00448 27.1078 2.5044 28.5047C0.841785 33.1416 0.000288312 38.0057 7.47869e-08 42.9974C-0.000295256 48.0876 0.874097 53.0452 2.60182 57.7646C3.03457 58.9483 3.51785 60.1077 4.04908 61.2402C6.06543 65.545 8.76366 69.4558 12.0893 72.892C12.4222 73.2362 12.7608 73.5748 13.1049 73.9077C16.5386 77.2316 20.4463 79.9288 24.7474 81.9451C25.8939 82.4833 27.068 82.9725 28.267 83.4097C32.9753 85.1292 37.9207 85.9997 42.9996 86H43H43.0004C48.0486 86 52.9662 85.1396 57.6505 83.4397C58.9249 82.9779 60.1713 82.4576 61.3864 81.882C65.5215 79.9262 69.2907 77.3391 72.6222 74.1695C73.1502 73.6675 73.6654 73.1523 74.1674 72.6243C77.3312 69.2995 79.9147 65.5384 81.8695 61.4127C82.4482 60.1933 82.9711 58.9423 83.4351 57.6632C85.1378 52.9758 85.9997 48.0545 86 43.0026M86 42.9928C86 42.9584 85.9999 42.924 85.9999 42.8896Z" fill="#FBEEEE"/>
<g id="Twitter">
<path id="Twitter 1" d="M62.3993 29.2696C62.3993 29.2696 66.8237 25.5459 66.6835 23.8842C66.6835 23.8842 61.5785 26.1264 60.4574 26.2265C60.4574 26.2265 60.1024 25.8693 59.5213 25.3997C59.3275 25.2432 59.1087 25.0741 58.8694 24.9017C58.4262 24.5781 57.9596 24.3 57.4751 24.0644C57.2329 23.9467 56.9863 23.8394 56.7363 23.7419C55.1087 23.0287 53.3257 22.8541 51.5754 23.0455C51.3253 23.0729 51.0761 23.1078 50.8279 23.1495C47.925 23.6039 45.4424 25.3657 43.8801 27.7677C43.7399 27.9868 43.6099 28.2117 43.4914 28.4424C43.2547 28.9036 43.064 29.3877 42.9298 29.8927C42.8772 30.0791 42.8196 30.2962 42.7652 30.528C42.7108 30.7598 42.6595 31.0063 42.6194 31.2516C42.4593 32.2326 42.6194 35.4158 42.6194 35.4158C42.6194 35.4158 29.7066 35.8162 21.4183 25.0854C21.4183 25.0854 17.3343 32.8132 24.3812 38.2186C24.3812 38.2186 22.9481 38.8592 20.2412 37.2576C20.2412 37.2576 18.8958 43.1434 27.6245 47.1874H23.3804C23.3804 47.1874 24.8619 53.7139 32.7498 54.3145C32.7498 54.3145 29.0261 59.3195 18.2153 58.5586C18.2153 58.5586 27.9692 65.3408 40.5354 62.1931C40.7598 62.1369 40.9851 62.0775 41.2113 62.0149C43.2002 61.4014 45.2022 60.6808 47.0205 59.7143C47.1792 59.632 47.3379 59.5478 47.4968 59.4616C47.9736 59.2036 48.4523 58.9289 48.9329 58.6372C48.9329 58.6372 62.1453 51.4783 63.2262 32.981C63.2262 32.981 66.003 31.3516 67.7847 28.2285C67.7847 28.2286 62.7797 29.3897 62.3993 29.2696Z" fill="#794D4D"/>
</g>
</g>
</g>
</svg>
