<svg width="86" height="86" viewBox="0 0 86 86" fill="none" xmlns="http://www.w3.org/2000/svg">
<g id="Group 32">
<circle id="Ellipse 5" cx="43" cy="43" r="43" fill="#FBEEEE"/>
<g id="Page 1">
<path id="Oval 1" fill-rule="evenodd" clip-rule="evenodd" d="M66.5368 54.5309C65.9398 57.1254 63.8175 59.0384 61.2639 59.3237C55.215 59.9996 49.0928 60.003 42.9969 59.9996C36.9015 60.003 30.7788 59.9996 24.7304 59.3237C22.1762 59.0384 20.0551 57.1254 19.4587 54.5309C18.6093 50.8359 18.6093 46.804 18.6093 43.0004C18.6093 39.1963 18.6194 35.1639 19.4682 31.4688C20.0652 28.8744 22.1863 26.9608 24.7399 26.676C30.7888 26.0001 36.911 25.9968 43.0069 26.0001C49.1023 25.9968 55.2251 26.0001 61.2734 26.676C63.8276 26.9608 65.9498 28.8744 66.5463 31.4688C67.3956 35.1639 67.3906 39.1963 67.3906 43.0004C67.3906 46.804 67.3855 50.8359 66.5368 54.5309ZM38.6094 33.9998L52.1095 41.7941L38.6094 49.5884V33.9998Z" fill="#794D4D"/>
</g>
</g>
</svg>
